<?xml version="1.0" encoding="UTF-8"?>
<svg version="1.1" xmlns="http://www.w3.org/2000/svg" width="1024" height="1024">
<path d="M0 0 C8.80574861 -0.30261991 17.60968181 -0.53287607 26.41951466 -0.67355824 C30.51161954 -0.74112045 34.60014274 -0.83254972 38.69018555 -0.98071289 C42.64573821 -1.12308984 46.59787306 -1.1999091 50.55579185 -1.23340416 C52.05722566 -1.25723401 53.55849365 -1.30377867 55.0584507 -1.37449074 C66.44938153 -1.88960837 66.44938153 -1.88960837 70.69732285 1.2574501 C74.36006921 4.77638177 77.15954332 8.80980856 80 13 C81.13662834 14.38393196 81.13662834 14.38393196 82.29621887 15.79582214 C84 18 84 18 84 20 C84.59425781 20.24878906 85.18851562 20.49757813 85.80078125 20.75390625 C88.33342988 22.18892386 89.47302464 23.59650031 91.1875 25.9375 C94.72334032 30.67245139 98.4702997 35.19596508 102.27734375 39.71484375 C104 42 104 42 104 44 C104.66 44 105.32 44 106 44 C107.77389278 46.06904965 109.4284447 48.13761169 111.0625 50.3125 C111.52205078 50.90740234 111.98160156 51.50230469 112.45507812 52.11523438 C114.43820869 54.72155134 115.95736686 56.87210058 117 60 C118.485 60.495 118.485 60.495 120 61 C120 61.99 120 62.98 120 64 C120.82177734 64.28617188 120.82177734 64.28617188 121.66015625 64.578125 C125.07691345 66.65441819 127.05803323 69.58174163 129.4375 72.75 C130.37283049 73.97462134 131.30902242 75.19858523 132.24609375 76.421875 C132.92647705 77.3180957 132.92647705 77.3180957 133.62060547 78.23242188 C134.98206087 79.97701251 136.40262124 81.65251555 137.84765625 83.328125 C140 86 140 86 140 88 C140.66 88 141.32 88 142 88 C143.95981288 90.25407908 145.80400764 92.5132561 147.625 94.875 C148.140625 95.52597656 148.65625 96.17695312 149.1875 96.84765625 C153 101.73935599 153 101.73935599 153 104 C153.99 104.33 154.98 104.66 156 105 C156 105.99 156 106.98 156 108 C156.82177734 108.28617188 156.82177734 108.28617188 157.66015625 108.578125 C161.07691345 110.65441819 163.05803323 113.58174163 165.4375 116.75 C166.37283049 117.97462134 167.30902242 119.19858523 168.24609375 120.421875 C168.92647705 121.3180957 168.92647705 121.3180957 169.62060547 122.23242188 C170.98206087 123.97701251 172.40262124 125.65251555 173.84765625 127.328125 C176 130 176 130 176 132 C176.57621094 132.22042969 177.15242187 132.44085937 177.74609375 132.66796875 C180.70574145 134.41708463 182.07656827 136.50992345 184.0625 139.3125 C187.37304029 143.88748276 190.82577188 148.27397281 194.5 152.5625 C195.18715088 153.3671167 195.18715088 153.3671167 195.88818359 154.18798828 C196.80478109 155.26075403 197.72176968 156.33318574 198.63916016 157.40527344 C200.84020723 159.98461314 203.01939057 162.58032289 205.1875 165.1875 C205.92355469 166.06792969 206.65960938 166.94835937 207.41796875 167.85546875 C209 170 209 170 209 172 C209.99 172.33 210.98 172.66 212 173 C213.9375 175.14453125 213.9375 175.14453125 216 177.8125 C216.680625 178.68519531 217.36125 179.55789063 218.0625 180.45703125 C219.71839405 182.6303922 221.36061784 184.81415713 223 187 C223.495 94.435 223.495 94.435 224 0 C248.09 0 272.18 0 297 0 C297.02202574 38.96557026 297.04049746 77.93113468 297.05106533 116.89670938 C297.05231611 121.49193061 297.05361042 126.08715183 297.05493164 130.68237305 C297.05532511 132.05467176 297.05532511 132.05467176 297.05572652 133.45469368 C297.06008353 148.28823186 297.06797125 163.12176617 297.0771528 177.95530205 C297.08648847 193.16414354 297.09205542 208.37298299 297.09408849 223.58182722 C297.0954639 232.97431905 297.09981545 242.36679997 297.10791647 251.75928844 C297.11318286 258.19101176 297.11480454 264.62272941 297.11350138 271.05445474 C297.11285783 274.77095013 297.11387739 278.48742642 297.11920547 282.20391846 C297.12492642 286.22355906 297.12300118 290.24315842 297.12025452 294.26280212 C297.12462378 296.04437813 297.12462378 296.04437813 297.12908131 297.86194557 C297.12709026 298.92985566 297.12509921 299.99776576 297.12304783 301.09803677 C297.12342755 302.02721241 297.12380727 302.95638806 297.1241985 303.91372055 C297 306 297 306 296 307 C294.0941749 307.12018953 292.18389089 307.17021989 290.27441406 307.19287109 C288.43680511 307.21696548 288.43680511 307.21696548 286.56207275 307.24154663 C285.21326387 307.25303459 283.86444725 307.26364305 282.515625 307.2734375 C281.83876396 307.27876118 281.16190292 307.28408485 280.46453094 307.28956985 C276.87968578 307.31632341 273.29487566 307.33568827 269.70996094 307.35009766 C266.00964088 307.36672193 262.31021565 307.41147256 258.61023331 307.4624691 C255.76372278 307.49616459 252.91742359 307.50767763 250.07073212 307.51332474 C248.70716286 307.52003458 247.34360739 307.5352502 245.98023224 307.55921555 C235.02175503 307.74079975 235.02175503 307.74079975 230.80810547 304.68579102 C230.21143066 303.79947998 229.61475586 302.91316895 229 302 C228.47647949 301.40131104 227.95295898 300.80262207 227.41357422 300.18579102 C226.9651416 299.63076904 226.51670898 299.07574707 226.0546875 298.50390625 C225.54035156 297.86952637 225.02601563 297.23514648 224.49609375 296.58154297 C223.96113281 295.91525879 223.42617188 295.24897461 222.875 294.5625 C222.31167969 293.86527832 221.74835938 293.16805664 221.16796875 292.44970703 C216.96367653 287.23331412 212.80677174 281.98004233 208.69091797 276.69360352 C206.57868611 273.98440079 204.42904607 271.32858192 202.1875 268.7265625 C200 266 200 266 200 264 C199.34 264 198.68 264 198 264 C196.22610722 261.93095035 194.5715553 259.86238831 192.9375 257.6875 C192.47794922 257.09259766 192.01839844 256.49769531 191.54492188 255.88476562 C189.56179131 253.27844866 188.04263314 251.12789942 187 248 C186.01 247.67 185.02 247.34 184 247 C184 246.01 184 245.02 184 244 C183.45214844 243.80921875 182.90429688 243.6184375 182.33984375 243.421875 C178.92308655 241.34558181 176.94196677 238.41825837 174.5625 235.25 C173.62716951 234.02537866 172.69097758 232.80141477 171.75390625 231.578125 C171.30031738 230.98064453 170.84672852 230.38316406 170.37939453 229.76757812 C169.01793913 228.02298749 167.59737876 226.34748445 166.15234375 224.671875 C164 222 164 222 164 220 C163.34 220 162.68 220 162 220 C160.22610722 217.93095035 158.5715553 215.86238831 156.9375 213.6875 C156.47794922 213.09259766 156.01839844 212.49769531 155.54492188 211.88476562 C153.56179131 209.27844866 152.04263314 207.12789942 151 204 C150.01 203.67 149.02 203.34 148 203 C148 202.01 148 201.02 148 200 C147.45214844 199.80921875 146.90429688 199.6184375 146.33984375 199.421875 C142.92308655 197.34558181 140.94196677 194.41825837 138.5625 191.25 C137.62716951 190.02537866 136.69097758 188.80141477 135.75390625 187.578125 C135.30031738 186.98064453 134.84672852 186.38316406 134.37939453 185.76757812 C133.01793913 184.02298749 131.59737876 182.34748445 130.15234375 180.671875 C128 178 128 178 128 176 C127.34 176 126.68 176 126 176 C124.0546875 173.8828125 124.0546875 173.8828125 121.875 171.125 C121.15054688 170.22007812 120.42609375 169.31515625 119.6796875 168.3828125 C118 166 118 166 118 164 C117.34 164 116.68 164 116 164 C114.25062864 161.97425227 112.61728647 159.94033289 111 157.8125 C110.51595703 157.18698242 110.03191406 156.56146484 109.53320312 155.91699219 C107.05453273 152.70825827 104.60359746 149.47874579 102.15625 146.24609375 C101.70894531 145.65787842 101.26164062 145.06966309 100.80078125 144.46362305 C99.94966747 143.34238288 99.10311407 142.21766266 98.26171875 141.08911133 C96.29641077 138.49403388 94.74585314 136.83056876 92 135 C92 134.01 92 133.02 92 132 C91.18402344 131.71962891 91.18402344 131.71962891 90.3515625 131.43359375 C86.8687947 129.31037816 84.81360663 126.28680743 82.375 123.0625 C81.88515625 122.42892578 81.3953125 121.79535156 80.890625 121.14257812 C78.83538099 118.47244554 76.87048417 115.80572626 75 113 C74.99576806 113.99374854 74.99153612 114.98749708 74.98717594 116.01135921 C74.88413442 140.15440513 74.77540588 164.29742027 74.66066074 188.44041348 C74.60530429 200.11562012 74.55181838 211.79082982 74.50268555 223.46606445 C74.45987332 233.63824595 74.41360292 243.81040472 74.36312145 253.98255116 C74.33649658 259.37217917 74.311643 264.7618026 74.29092598 270.15145683 C74.27139591 275.21813644 74.24726323 280.2847727 74.21950912 285.35141373 C74.21011939 287.21671451 74.20245108 289.08202483 74.19658089 290.94734001 C74.18835222 293.48251444 74.174085 296.01758274 74.15821838 298.55271912 C74.15724028 299.3007593 74.15626217 300.04879948 74.15525442 300.81950754 C74.11412121 305.88587879 74.11412121 305.88587879 73 307 C70.76612794 307.0996392 68.52906141 307.12799795 66.29296875 307.12939453 C65.59217194 307.13114685 64.89137512 307.13289917 64.16934204 307.13470459 C61.84203651 307.13912266 59.51480636 307.13618529 57.1875 307.1328125 C55.57706691 307.13348555 53.96663391 307.13445559 52.35620117 307.13571167 C48.97671545 307.13718858 45.5972561 307.13503431 42.21777344 307.13037109 C37.87623495 307.1246738 33.53475827 307.12795285 29.19322205 307.13394356 C25.86649099 307.13754936 22.5397747 307.1364105 19.21304321 307.13381577 C17.61178582 307.13314655 16.0105271 307.13397474 14.40927124 307.13629532 C12.17515489 307.13882216 9.94114 307.13498085 7.70703125 307.12939453 C5.79627808 307.12820114 5.79627808 307.12820114 3.84692383 307.12698364 C1 307 1 307 0 306 C-0.09713175 304.36838617 -0.12371579 302.73253908 -0.12304783 301.09803677 C-0.12503888 300.03012667 -0.12702993 298.96221658 -0.12908131 297.86194557 C-0.12616847 296.67422823 -0.12325563 295.4865109 -0.12025452 294.26280212 C-0.12110894 293.01238068 -0.12196337 291.76195923 -0.12284368 290.47364622 C-0.12509099 286.98701255 -0.12106417 283.50040931 -0.11606562 280.01377952 C-0.11176466 276.25984245 -0.11320729 272.50590722 -0.1139679 268.75196838 C-0.11449336 262.24274727 -0.11134425 255.73353615 -0.10573006 249.22431755 C-0.09761804 239.81297147 -0.09500014 230.40163025 -0.09374207 220.99028105 C-0.09155107 205.72260325 -0.08488972 190.45493077 -0.07543945 175.18725586 C-0.06626655 160.35229519 -0.05918512 145.51733597 -0.05493164 130.68237305 C-0.05466892 129.76861512 -0.05440619 128.8548572 -0.05413551 127.91340964 C-0.05283051 123.32955448 -0.05156679 118.74569931 -0.05032361 114.16184413 C-0.03994953 76.10789236 -0.02232994 38.05394653 0 0 Z " fill="#FFFFFF" transform="translate(60,448)"/>
<path d="M0 0 C55.44 0 110.88 0 168 0 C168.33 8.25 168.66 16.5 169 25 C171.866875 25.556875 174.73375 26.11375 177.6875 26.6875 C190.91753706 29.39127555 204.0835445 33.81265838 215 42 C215 42.66 215 43.32 215 44 C215.5775 44.2475 216.155 44.495 216.75 44.75 C219.32939979 46.18299988 221.06121592 47.78424676 223 50 C223 50.66 223 51.32 223 52 C223.99 52.33 224.98 52.66 226 53 C228.34816715 56.82188664 230.13599096 60.92376046 232 65 C232.32484375 65.67546875 232.6496875 66.3509375 232.984375 67.046875 C240.11180996 83.48361276 238.97656093 108.35867263 233.25 125.20654297 C225.73342956 144.21111256 210.96001195 154.81365136 194 165 C194.7528125 165.268125 195.505625 165.53625 196.28125 165.8125 C205.54937044 169.23180657 214.23522599 173.46572025 223 178 C223 178.66 223 179.32 223 180 C223.53753906 180.05800781 224.07507813 180.11601563 224.62890625 180.17578125 C228.06927162 181.3716908 230.34156879 183.72768504 232.9375 186.1875 C233.44990234 186.65736328 233.96230469 187.12722656 234.49023438 187.61132812 C245.65626398 198.01120068 251.83542701 209.9161646 254 225 C254.15339844 226.04800781 254.30679687 227.09601563 254.46484375 228.17578125 C256.81812897 249.408231 250.61271281 269.0447523 238 286 C237.38898438 286.83015625 236.77796875 287.6603125 236.1484375 288.515625 C233.71244859 291.332514 231.12888306 293.36500285 228.125 295.5625 C227.11695313 296.30628906 226.10890625 297.05007813 225.0703125 297.81640625 C219.20013678 301.99125132 213.62622904 305.24624248 207 308 C206.2265625 308.33 205.453125 308.66 204.65625 309 C189.05020198 315.48563035 172.86287888 318.7653981 156.12891388 320.74321365 C154.75821301 320.9085455 153.38825525 321.08022509 152.01934052 321.25974655 C135.94675467 323.35625691 119.87609702 323.26496433 103.7020483 323.20278788 C99.83174814 323.19009939 95.96144324 323.189096 92.09112549 323.18673706 C84.79607284 323.1805746 77.5010817 323.16423639 70.20605588 323.14403808 C61.88653296 323.12151392 53.56700677 323.11064456 45.24746084 323.10064721 C28.1649386 323.0798641 11.08247585 323.0447925 -6 323 C-6 322.01 -6 321.02 -6 320 C-4.42025391 319.45472656 -4.42025391 319.45472656 -2.80859375 318.8984375 C5.70132171 315.93963286 14.10825557 312.83034458 22.4375 309.39453125 C25.81571274 308.07213876 29.2066492 306.90391026 32.65234375 305.7746582 C36.62002593 304.46543861 40.55816312 303.0722128 44.5 301.6875 C45.27085937 301.41744141 46.04171875 301.14738281 46.8359375 300.86914062 C55.22872193 297.92630327 63.61377443 294.96146231 72 292 C72.01458252 290.81970215 72.02916504 289.6394043 72.04418945 288.42333984 C72.10232697 284.02850625 72.17955881 279.63417674 72.26245117 275.23974609 C72.29562793 273.34074101 72.32368231 271.44163904 72.34643555 269.54248047 C72.38011518 266.80654765 72.4324372 264.07149689 72.48828125 261.3359375 C72.49467117 260.49195404 72.5010611 259.64797058 72.50764465 258.77841187 C72.63072489 253.80166218 73.25609044 250.3151299 76 246 C79.73733498 242.98936905 83.23443187 242.16432994 88 242 C92.63849581 243.49375289 95.91144181 245.19869761 99 249 C100.15927528 252.47782583 100.11313066 255.18803257 100.09765625 258.85546875 C100.0962413 259.51710526 100.09482635 260.17874176 100.09336853 260.86042786 C100.08777996 262.96949828 100.07522965 265.07846177 100.0625 267.1875 C100.05748352 268.61913909 100.05292087 270.05077985 100.04882812 271.48242188 C100.0378143 274.98831588 100.02055755 278.4941475 100 282 C134.97372975 273.473275 134.97372975 273.473275 165 256 C165.66 256 166.32 256 167 256 C167.66 254.68 168.32 253.36 169 252 C169.66 252 170.32 252 171 252 C175.775207 242.71948901 177.84546496 233.585358 174.875 223.3125 C171.87116366 215.4885542 166.38816525 209.00959146 159 205 C145.33264545 200.13800666 131.2996394 205.57697814 118.609375 210.97265625 C116.34952415 211.86238795 114.09706998 212.63514585 111.7890625 213.38671875 C106.97897739 214.97109501 102.31055281 216.83307629 97.625 218.75 C90.8097484 221.50869115 83.96897831 224.1657106 77.0625 226.6875 C76.267229 226.97794189 75.47195801 227.26838379 74.65258789 227.56762695 C73.12517889 228.12520693 71.59775446 228.68274467 70.0703125 229.24023438 C61.81633571 232.26928812 53.65708974 235.5341462 45.5 238.8125 C35.95204401 242.64815063 26.34907783 246.32623818 16.72460938 249.96484375 C13.8388838 251.06121261 10.95812591 252.16993506 8.078125 253.28125 C6.63070923 253.838125 6.63070923 253.838125 5.15405273 254.40625 C3.29322736 255.12250549 1.43332523 255.84116528 -0.42553711 256.5625 C-1.67475952 257.04203125 -1.67475952 257.04203125 -2.94921875 257.53125 C-4.05269653 257.95760742 -4.05269653 257.95760742 -5.1784668 258.39257812 C-7 259 -7 259 -9 259 C-9.40492896 248.66681277 -8.59630926 238.8825559 -7.13964844 228.65649414 C-6.28637684 222.55600566 -5.7018577 216.5282907 -5.4375 210.375 C-4.45198144 190.4701767 -4.45198144 190.4701767 -1.44140625 187.421875 C0.68724328 186.27403179 2.66307469 185.61928521 5 185 C6.22203125 184.61521484 6.22203125 184.61521484 7.46875 184.22265625 C9.07522061 183.72435287 10.68947138 183.24999174 12.3125 182.80859375 C15.19739442 181.94060953 17.99919874 180.90340359 20.81396484 179.83178711 C23.05456914 178.97923642 25.3013459 178.14535866 27.55078125 177.31640625 C28.32623291 177.03055664 29.10168457 176.74470703 29.90063477 176.45019531 C33.19574903 175.23741715 36.49135924 174.02599038 39.78710938 172.81494141 C41.63548382 172.1342404 43.48203319 171.44858624 45.328125 170.76171875 C46.23046875 170.42785156 47.1328125 170.09398437 48.0625 169.75 C49.16271484 169.34007812 49.16271484 169.34007812 50.28515625 168.921875 C52.7003131 168.10176418 55.11898499 167.37235455 57.56640625 166.65625 C63.4212263 164.91499937 69.13971625 162.84688608 74.875 160.75 C77.09479965 159.9446164 79.31485502 159.13993729 81.53515625 158.3359375 C82.62844238 157.93987305 83.72172852 157.54380859 84.84814453 157.13574219 C89.32692453 155.52185492 93.81747879 153.94298876 98.3125 152.375 C99.11155762 152.09575684 99.91061523 151.81651367 100.73388672 151.52880859 C104.90669497 150.0725095 109.08285093 148.62631563 113.26171875 147.1875 C137.90580679 139.95702835 137.90580679 139.95702835 156.21484375 123.46484375 C158.66413228 118.27437011 158.62509587 113.21453923 158.5625 107.5625 C158.58634766 106.57701172 158.61019531 105.59152344 158.63476562 104.57617188 C158.61767102 95.97758512 155.85828086 90.10954787 150.25 83.6875 C140.80236587 74.98891103 128.14724821 75.81944928 116.125 75.8125 C115.01769531 75.80025391 113.91039062 75.78800781 112.76953125 75.77539062 C103.51907535 75.75908547 94.6901059 76.58483459 86.0625 80.125 C84.97066406 80.56457031 83.87882813 81.00414062 82.75390625 81.45703125 C82.15980957 81.70146973 81.56571289 81.9459082 80.95361328 82.19775391 C77.14599791 83.76134102 73.32124279 85.28259761 69.5 86.8125 C68.65268311 87.15289307 67.80536621 87.49328613 66.93237305 87.84399414 C59.89910603 90.66216553 52.82933222 93.37663029 45.74316406 96.05859375 C39.18367561 98.54202148 32.64420196 101.07327547 26.12255859 103.65454102 C12.50440419 109 12.50440419 109 10 109 C10.30061155 97.42064233 10.93806067 86.08286419 12.83862305 74.64941406 C14.08771065 66.96718191 14.76061591 59.2697293 15.35327148 51.51196289 C15.42489502 50.59020264 15.49651855 49.66844238 15.5703125 48.71875 C15.62977051 47.90341797 15.68922852 47.08808594 15.75048828 46.24804688 C15.99025326 44.08781605 16.41952868 42.0918533 17 40 C15.85660156 40.01160156 14.71320313 40.02320313 13.53515625 40.03515625 C12.04427246 40.04453288 10.55338691 40.05363321 9.0625 40.0625 C8.30775391 40.07087891 7.55300781 40.07925781 6.77539062 40.08789062 C4.85005687 40.09652441 2.92464419 40.05224333 1 40 C0.67 39.67 0.34 39.34 0 39 C0 26.13 0 13.26 0 0 Z " fill="#FFFFFF" transform="translate(433,432)"/>
<path d="M0 0 C1.04414062 0.39058594 2.08828125 0.78117187 3.1640625 1.18359375 C10.2516078 3.84764766 17.16654634 6.74096825 24 10 C24.66064453 10.30873047 25.32128906 10.61746094 26.00195312 10.93554688 C28.19556546 11.96423457 30.37960716 13.01127948 32.5625 14.0625 C33.26608643 14.39096924 33.96967285 14.71943848 34.69458008 15.05786133 C37.38193385 16.37311712 39.63787197 17.59763552 41.65234375 19.8359375 C42.2158683 23.34371953 40.65013739 25.48568132 39 28.5625 C38.51430542 29.48361572 38.51430542 29.48361572 38.01879883 30.42333984 C37.02863253 32.29142295 36.01692388 34.14637291 35 36 C34.42636719 37.06347656 33.85273437 38.12695312 33.26171875 39.22265625 C32.26986193 41.05131535 31.27084253 42.87612498 30.26171875 44.6953125 C29.12319751 46.77496429 28.04445222 48.87186731 27 51 C26.34 51 25.68 51 25 51 C24.89300781 51.72445312 24.78601563 52.44890625 24.67578125 53.1953125 C23.9451977 56.2274454 22.84685429 58.24523852 21.1875 60.875 C19.29815989 63.89884816 17.48684967 66.91498221 15.8125 70.0625 C14 73 14 73 11 74 C8.91723633 72.98071289 8.91723633 72.98071289 6.51953125 71.41015625 C1.08312685 67.9965083 -4.51248662 65.17723166 -10.3125 62.4375 C-11.3236084 61.95788818 -12.3347168 61.47827637 -13.37646484 60.98413086 C-20.48221667 57.6445758 -27.56545985 54.54232912 -35 52 C-35.96679688 51.64550781 -36.93359375 51.29101562 -37.9296875 50.92578125 C-60.38701903 43.24000239 -89.11652182 40.59708306 -111.1953125 50.421875 C-113.83401599 51.9066051 -115.36511142 53.11245887 -117.25 55.4375 C-117.72953125 56.01371094 -118.2090625 56.58992187 -118.703125 57.18359375 C-122.03987428 61.85705283 -122.3367807 65.75096088 -122.3125 71.4375 C-122.32861328 72.18837891 -122.34472656 72.93925781 -122.36132812 73.71289062 C-122.36543821 78.38605811 -121.77482439 81.08303153 -119 85 C-119 85.66 -119 86.32 -119 87 C-117.02 87.99 -117.02 87.99 -115 89 C-115 89.66 -115 90.32 -115 91 C-113.02 91.495 -113.02 91.495 -111 92 C-111 92.66 -111 93.32 -111 94 C-110.154375 94.268125 -109.30875 94.53625 -108.4375 94.8125 C-103.83147778 96.40367131 -99.41399165 98.33632725 -95.00390625 100.40625 C-89.97280224 102.55958118 -84.67308741 103.74806334 -79.375 105.0625 C-77.3403776 105.5711556 -75.30649319 106.08277431 -73.2734375 106.59765625 C-72.38060059 106.81945557 -71.48776367 107.04125488 -70.56787109 107.26977539 C-67.9553113 108.01270811 -65.51974208 108.99130062 -63 110 C-61.50234766 110.40536609 -59.99501482 110.776481 -58.48046875 111.11328125 C-57.63105713 111.30664062 -56.78164551 111.5 -55.90649414 111.69921875 C-55.00922607 111.90160156 -54.11195801 112.10398437 -53.1875 112.3125 C-19.09867868 120.22739606 20.83141654 131.98389774 40.640625 162.921875 C41.9669543 165.02136176 41.9669543 165.02136176 43.54296875 166.9296875 C54.15666238 182.01080714 52.72856331 208.87412011 50.1262207 226.23120117 C48.91122242 233.15456257 47.13494315 239.68500661 44 246 C43.64164063 246.7425 43.28328125 247.485 42.9140625 248.25 C32.18154744 268.9947271 12.40717674 283.17009185 -9.48168945 290.2355957 C-12.64124013 291.20648192 -15.81574769 292.11376797 -19 293 C-20.63582031 293.51240234 -20.63582031 293.51240234 -22.3046875 294.03515625 C-27.02278787 295.26704926 -31.7320488 295.93215209 -36.5625 296.5625 C-37.54484619 296.69180908 -38.52719238 296.82111816 -39.53930664 296.9543457 C-78.88816294 302.01251351 -119.61786643 298.66958615 -157 285 C-157.99483398 284.64083496 -157.99483398 284.64083496 -159.00976562 284.27441406 C-169.85692334 280.32867593 -179.95608058 275.6749332 -190 270 C-191.8122885 268.99961675 -193.62475296 267.99955211 -195.4375 267 C-196.62578582 266.33473501 -197.81365748 265.66872424 -199 265 C-199 264.34 -199 263.68 -199 263 C-199.5775 262.938125 -200.155 262.87625 -200.75 262.8125 C-203.88690987 261.67972699 -205.09167504 259.65802405 -207 257 C-204.44411915 252.31798817 -201.83183509 247.6845385 -199.0625 243.125 C-195.41620471 237.09458856 -192.09618348 230.89573722 -188.7578125 224.69140625 C-186.41144855 220.38973901 -183.94108972 216.17460298 -181.375 212 C-180.52035156 210.6078125 -180.52035156 210.6078125 -179.6484375 209.1875 C-178 207 -178 207 -175 206 C-172.4765625 207.109375 -172.4765625 207.109375 -169.625 208.75 C-168.68914063 209.28109375 -167.75328125 209.8121875 -166.7890625 210.359375 C-164.18379529 211.89188513 -161.58953129 213.44108484 -159 215 C-157.39877332 215.9340489 -155.79555234 216.86494697 -154.1796875 217.7734375 C-152.53066659 218.70138116 -150.89173189 219.6472791 -149.2578125 220.6015625 C-134.74846272 228.81508469 -119.09501083 233.01648991 -103 237 C-102.30712891 237.17869629 -101.61425781 237.35739258 -100.90039062 237.54150391 C-80.57667058 242.44488857 -52.91473471 241.44230267 -34.6875 231.125 C-29.95606122 227.38386236 -27.52529762 223.12018015 -26.24609375 217.2109375 C-25.48886 210.4078533 -26.3652916 202.44789001 -30.58203125 196.9296875 C-33.23539172 193.8126872 -35.57746865 191.28168756 -39 189 C-39 188.34 -39 187.68 -39 187 C-39.639375 186.9175 -40.27875 186.835 -40.9375 186.75 C-43.4965118 186.12330323 -45.39456351 185.4147528 -47.75 184.3125 C-58.73870644 179.28594647 -70.25556505 175.74705574 -82 173 C-86.21047062 171.91774929 -90.40803025 170.7900827 -94.60302734 169.64941406 C-96.35764993 169.17403251 -98.11333814 168.7025794 -99.86962891 168.23339844 C-111.38448296 165.15051126 -122.73586582 162.07719021 -133.71484375 157.3984375 C-137.04541834 155.98066615 -140.411387 154.73748491 -143.8125 153.5 C-151.91920784 150.40271973 -158.83565348 145.83176858 -166 141 C-166.845625 140.525625 -167.69125 140.05125 -168.5625 139.5625 C-171.47047402 137.69841409 -173.62268765 135.49922581 -176 133 C-176.763125 132.278125 -177.52625 131.55625 -178.3125 130.8125 C-180 129 -180 129 -180 127 C-180.99 126.67 -181.98 126.34 -183 126 C-195.84169579 109.99402599 -200.59926297 89.13041538 -198.50219727 68.86279297 C-198.09535891 65.55531133 -197.56504352 62.28474096 -197 59 C-196.82726562 57.97261719 -196.65453125 56.94523438 -196.4765625 55.88671875 C-194.5992383 46.87800069 -190.30128808 39.050867 -186 31 C-185.34 31 -184.68 31 -184 31 C-183.7628125 30.28457031 -183.525625 29.56914062 -183.28125 28.83203125 C-177.50938231 16.07409199 -163.09974528 6.99287518 -151 1 C-149.99066406 0.484375 -148.98132813 -0.03125 -147.94140625 -0.5625 C-105.1386407 -21.51856636 -43.25793341 -17.08233707 0 0 Z " fill="#FFFFFF" transform="translate(927,457)"/>
<path d="M0 0 C2.5 0.125 2.5 0.125 3.5 1.125 C3.67997428 2.88242915 3.80003915 4.64606465 3.89453125 6.41015625 C3.96349609 7.49876953 4.03246094 8.58738281 4.10351562 9.70898438 C4.24116085 12.00006987 4.36901515 14.29176785 4.48632812 16.58398438 C4.99928844 24.31470495 6.07422702 30.31617645 11.3515625 36.18359375 C11.93679688 36.63863281 12.52203125 37.09367187 13.125 37.5625 C13.71539063 38.03558594 14.30578125 38.50867188 14.9140625 38.99609375 C16.51341748 40.19602103 16.51341748 40.19602103 18.5 41.125 C18.5 41.785 18.5 42.445 18.5 43.125 C20.48 43.62 20.48 43.62 22.5 44.125 C22.5 44.785 22.5 45.445 22.5 46.125 C23.17804688 46.33898437 23.85609375 46.55296875 24.5546875 46.7734375 C28.42694733 48.5503631 31.36424545 51.0389512 34.625 53.75 C39.88284938 58.04188726 45.20287712 62.16151578 50.7265625 66.109375 C54.60412296 68.92743302 58.38979404 71.8599595 62.17431641 74.80126953 C64.57397149 76.66254522 66.97134566 78.43923044 69.5 80.125 C69.17 81.115 68.84 82.105 68.5 83.125 C23.29 83.125 -21.92 83.125 -68.5 83.125 C-68.83 81.805 -69.16 80.485 -69.5 79.125 C-64.875 75.125 -64.875 75.125 -61.5 75.125 C-61.17 74.135 -60.84 73.145 -60.5 72.125 C-58.50390625 70.51953125 -58.50390625 70.51953125 -56.0625 68.9375 C-55.25941406 68.40769531 -54.45632813 67.87789063 -53.62890625 67.33203125 C-51.5 66.125 -51.5 66.125 -49.5 66.125 C-49.5 65.465 -49.5 64.805 -49.5 64.125 C-48.19604833 63.20870964 -46.88140008 62.30606435 -45.53515625 61.453125 C-39.06467892 57.23054862 -32.89570911 52.48618951 -26.73828125 47.8203125 C-24.93057028 46.45112129 -23.11323679 45.09464 -21.29296875 43.7421875 C-20.13254047 42.87015354 -18.9723853 41.99775604 -17.8125 41.125 C-17.2654541 40.72168457 -16.7184082 40.31836914 -16.15478516 39.90283203 C-10.75092887 35.80840332 -6.52518211 32.03881297 -5.5 25.125 C-5.30618287 23.22653427 -5.14120402 21.32497737 -5 19.421875 C-4.9175 18.3596875 -4.835 17.2975 -4.75 16.203125 C-4.58216619 13.96883737 -4.4155156 11.73446056 -4.25 9.5 C-4.1675 8.44296875 -4.085 7.3859375 -4 6.296875 C-3.9278125 5.3284668 -3.855625 4.36005859 -3.78125 3.36230469 C-3.38437031 0.20518191 -3.20950964 0.16047548 0 0 Z " fill="#A15A1E" transform="translate(517.5,260.875)"/>
<path d="M0 0 C1.53616801 0.00138269 1.53616801 0.00138269 3.10336971 0.00279331 C4.85978283 0.00073132 4.85978283 0.00073132 6.65167904 -0.00137234 C8.59591511 0.00402058 8.59591511 0.00402058 10.57942867 0.00952244 C11.94901687 0.00980431 13.31860521 0.00964658 14.68819332 0.00907993 C18.41736714 0.00879195 22.14650906 0.01468874 25.87567544 0.02165389 C29.76878178 0.02788736 33.66188879 0.02849122 37.55499935 0.0296793 C44.93211912 0.03279263 52.30922415 0.04100605 59.68633741 0.05102879 C68.08281309 0.06218985 76.47928945 0.06770036 84.87577069 0.07272422 C102.15256822 0.08318867 119.42935138 0.10078815 136.70613766 0.12304783 C136.70613766 1.11304783 136.70613766 2.10304783 136.70613766 3.12304783 C130.70387091 6.6243701 126.0255189 7.29320252 118.70613766 9.12304783 C119.03613766 26.28304783 119.36613766 43.44304783 119.70613766 61.12304783 C131.64132098 64.5592974 131.64132098 64.5592974 143.70613766 67.12304783 C144.03613766 68.44304783 144.36613766 69.76304783 144.70613766 71.12304783 C93.08846631 72.79358014 41.32269859 72.84941564 -10.29386234 71.12304783 C-10.62386234 70.13304783 -10.95386234 69.14304783 -11.29386234 68.12304783 C-2.96052901 64.7897145 5.97493467 63.20190568 14.70613766 61.12304783 C14.70613766 43.63304783 14.70613766 26.14304783 14.70613766 8.12304783 C10.08613766 7.13304783 5.46613766 6.14304783 0.70613766 5.12304783 C-0.28386234 4.79304783 -1.27386234 4.46304783 -2.29386234 4.12304783 C-2.62386234 3.13304783 -2.95386234 2.14304783 -3.29386234 1.12304783 C-2.29386234 0.12304783 -2.29386234 0.12304783 0 0 Z M29.70613766 10.12304783 C30.03613766 27.28304783 30.36613766 44.44304783 30.70613766 62.12304783 C54.79613766 62.12304783 78.88613766 62.12304783 103.70613766 62.12304783 C103.70613766 44.96304783 103.70613766 27.80304783 103.70613766 10.12304783 C79.28613766 10.12304783 54.86613766 10.12304783 29.70613766 10.12304783 Z " fill="#D58C29" transform="translate(450.2938623428345,349.8769521713257)"/>
<path d="M0 0 C6.45905867 -0.37829628 11.85563734 0.29656488 18.04296875 2.1484375 C22.36328953 3.39259857 26.74587747 4.26651687 31.14453125 5.1875 C35.35330991 6.07445639 39.55206417 7.00085648 43.75 7.9375 C44.88719482 8.19067993 44.88719482 8.19067993 46.04736328 8.44897461 C49.85898477 9.29801068 53.66994 10.14998053 57.48046875 11.00390625 C58.96609568 11.33616184 60.45177281 11.66819302 61.9375 12 C62.67564941 12.16491943 63.41379883 12.32983887 64.17431641 12.49975586 C68.84518439 13.53755769 73.52375423 14.53042828 78.20922852 15.5 C85.50441791 17.00990883 92.73799779 18.64683854 99.95288086 20.50219727 C105.78959214 21.98647417 111.66775257 23.21585245 117.56665039 24.42529297 C123.72271227 25.69964689 129.82959627 27.13824712 135.9375 28.625 C142.2746398 30.16373408 148.55670234 31.50275092 155.0078125 32.48046875 C159.4738585 33.25590493 163.86541247 34.32766568 168.26879883 35.39428711 C172.17630308 36.33977101 176.0865524 37.24406355 180.01953125 38.078125 C180.84114746 38.25359863 181.66276367 38.42907227 182.50927734 38.60986328 C184.10080436 38.94749871 185.69355759 39.27941608 187.28759766 39.60498047 C192.77853033 40.77853033 192.77853033 40.77853033 195 43 C195.32752234 45.71454956 195.1308425 48.25230759 195 51 C194.67 51.33 194.34 51.66 194 52 C186.01908471 51.92285335 178.3771451 50.08134054 170.6875 48.125 C168.47423898 47.57828968 166.26069907 47.03270709 164.046875 46.48828125 C162.47389648 46.09890381 162.47389648 46.09890381 160.86914062 45.70166016 C152.86207239 43.74349864 144.80054265 42.1398348 136.6875 40.6875 C126.33832687 38.81334193 116.15185632 36.21429187 105.93945312 33.71679688 C101.90103835 32.732014 97.85837417 31.76613332 93.8125 30.8125 C93.1316333 30.65201172 92.4507666 30.49152344 91.74926758 30.32617188 C87.59290712 29.35382865 83.42692074 28.44185173 79.25 27.5625 C73.3074434 26.3096338 67.40441192 24.91929958 61.5 23.5 C54.63739266 21.85251374 47.77134809 20.26420469 40.86328125 18.81640625 C37.71148088 18.15035339 34.56427302 17.46866065 31.41796875 16.77734375 C30.4129834 16.55691406 29.40799805 16.33648437 28.37255859 16.109375 C26.39211491 15.67454326 24.411952 15.23842989 22.43212891 14.80078125 C16.74056324 13.55461132 11.06845509 12.48514168 5.30151367 11.64477539 C2.6951946 10.91460793 1.64145537 10.12552534 0 8 C-0.39078556 5.27492202 -0.13616953 2.76878044 0 0 Z " fill="#D58C29" transform="translate(238,312)"/>
<path d="M0 0 C0 3.63 0 7.26 0 11 C-3.86142255 12.20133146 -7.63626419 13.14452989 -11.625 13.8125 C-19.89577242 15.25875529 -28.02652151 17.3421054 -36.18310547 19.31787109 C-47.52010376 22.06319725 -58.85093701 24.79619352 -70.26953125 27.18359375 C-75.96138424 28.42924535 -81.62110481 29.80918814 -87.27929688 31.19921875 C-91.62878375 32.25404442 -95.965758 33.19773717 -100.375 33.96875 C-106.42029059 35.03481385 -112.35413014 36.46914315 -118.3125 37.9375 C-126.07373498 39.82544468 -133.83008618 41.66091828 -141.6484375 43.296875 C-145.62550079 44.13122394 -149.59474923 44.99756614 -153.5625 45.875 C-154.6767334 46.12032471 -154.6767334 46.12032471 -155.81347656 46.37060547 C-160.07906743 47.31901683 -164.32832097 48.31802988 -168.5703125 49.3671875 C-169.97301392 49.71160889 -169.97301392 49.71160889 -171.40405273 50.06298828 C-173.21521959 50.51002131 -175.02474538 50.96377464 -176.83227539 51.42529297 C-181.68849893 52.62161083 -185.99455937 53.34474558 -191 53 C-192.89488952 51.10511048 -192.18019112 48.42860854 -192.23046875 45.91015625 C-192 44 -192 44 -190 42 C-187.39382455 41.31321729 -184.82506851 40.7239025 -182.1875 40.1875 C-180.5504394 39.8401489 -178.91373395 39.4911208 -177.27734375 39.140625 C-175.98546143 38.86508789 -175.98546143 38.86508789 -174.66748047 38.58398438 C-170.17917168 37.60137092 -165.7159392 36.51646442 -161.25 35.4375 C-154.35211584 33.78061253 -147.44684299 32.20126984 -140.50390625 30.7421875 C-134.0916396 29.38395934 -127.69832617 27.93954931 -121.30126953 26.51171875 C-119.06494285 26.01444093 -116.82761257 25.52199315 -114.58984375 25.03125 C-106.39252167 23.22935059 -98.22146141 21.34380699 -90.0625 19.375 C-79.65227979 16.86551768 -79.65227979 16.86551768 -74.5 16 C-66.51976098 14.65317733 -58.6782261 12.58637574 -50.81689453 10.68212891 C-38.24235467 7.63712419 -25.67264228 4.61291593 -13 2 C-12.0203125 1.79375 -11.040625 1.5875 -10.03125 1.375 C-3.38541667 0 -3.38541667 0 0 0 Z " fill="#D58C29" transform="translate(796,311)"/>
<path d="M0 0 C2.06326565 0.41964725 4.12426975 0.85298381 6.17358398 1.33618164 C9.24429208 2.05737498 12.32440235 2.71730372 15.41015625 3.37109375 C22.86934843 4.96382806 30.31109855 6.62783421 37.75 8.3125 C39.09659561 8.61679254 40.44319397 8.92107292 41.78979492 9.2253418 C51.68475174 11.46371531 61.57163237 13.73637899 71.45019531 16.04614258 C75.93409842 17.08912463 80.41558102 18.09970698 84.93359375 18.984375 C90.90636365 20.15589056 96.82400199 21.55143086 102.75 22.9375 C110.57828313 24.75593869 118.40491185 26.5562774 126.26953125 28.2109375 C131.6428717 29.34749747 137.00852036 30.51903498 142.375 31.6875 C143.41809326 31.91445557 144.46118652 32.14141113 145.53588867 32.37524414 C148.02396783 32.91663654 150.51200462 33.45822277 153 34 C153.75614912 38.04399749 154.06022374 40.9947103 153 45 C145.53865669 44.25386567 138.31040342 42.63042863 131 41 C129.57556264 40.6847069 128.15108221 40.36960834 126.7265625 40.0546875 C122.92169921 39.21218804 119.11794212 38.36479271 115.31445312 37.51611328 C111.54346003 36.67519773 107.7716986 35.83774438 104 35 C102.49999617 34.66668391 100.99999617 34.33335056 99.5 34 C98.7575 33.835 98.015 33.67 97.25 33.5 C77 29 56.75 24.5 36.5 20 C35.7565332 19.83483887 35.01306641 19.66967773 34.24707031 19.49951172 C32.75674382 19.16822011 31.26650837 18.83651866 29.77636719 18.50439453 C25.87903406 17.63632887 21.98007023 16.77680012 18.078125 15.9296875 C17.26988281 15.75308594 16.46164062 15.57648438 15.62890625 15.39453125 C14.09042173 15.05854038 12.55139098 14.72503681 11.01171875 14.39453125 C6.90715533 13.49500446 2.96753076 12.40984583 -1 11 C-1.02688151 9.35425434 -1.04634123 7.70838587 -1.0625 6.0625 C-1.07410156 5.14597656 -1.08570313 4.22945313 -1.09765625 3.28515625 C-1 1 -1 1 0 0 Z " fill="#D58C29" transform="translate(603,377)"/>
<path d="M0 0 C1.60725635 3.21451269 1.05748185 6.43612536 1 10 C-5.58427036 12.66543957 -12.21354172 14.39084567 -19.125 16 C-20.24011963 16.26345215 -21.35523926 16.5269043 -22.50415039 16.79833984 C-29.2000476 18.3719513 -35.90355497 19.88714335 -42.63671875 21.29296875 C-49.00377415 22.63145542 -55.34884491 24.07097933 -61.69873047 25.48828125 C-63.93505715 25.98555907 -66.17238743 26.47800685 -68.41015625 26.96875 C-76.54293622 28.75615431 -84.65312981 30.61846744 -92.75 32.5625 C-99.55057277 34.195102 -106.35719566 35.75053438 -113.203125 37.18359375 C-119.12463787 38.45684086 -125.02441647 39.82641346 -130.92358398 41.19921875 C-147.43924143 45 -147.43924143 45 -155 45 C-155 41.7 -155 38.4 -155 35 C-145.40465417 32.08739117 -135.85522117 29.88516452 -126 28 C-115.76026276 25.91389204 -105.58755781 23.53671518 -95.4128418 21.15698242 C-90.59886543 20.0360784 -85.79053325 18.939032 -80.9375 18 C-75.32011629 16.90082381 -69.79360241 15.4819215 -64.25 14.0625 C-55.52950031 11.8561005 -46.81491986 9.79603992 -38 8 C-28.84491658 6.11836627 -19.79279745 3.99309576 -10.75146484 1.62548828 C-9.52484131 1.3100708 -9.52484131 1.3100708 -8.2734375 0.98828125 C-7.54560059 0.79790283 -6.81776367 0.60752441 -6.06787109 0.41137695 C-4 0 -4 0 0 0 Z " fill="#D58C29" transform="translate(435,377)"/>
<path d="M0 0 C4.96622349 -0.02465098 9.93241166 -0.04283649 14.89868164 -0.05493164 C16.58944316 -0.0599719 18.28020029 -0.06680405 19.97094727 -0.07543945 C22.39600707 -0.08751857 24.82100944 -0.09323123 27.24609375 -0.09765625 C28.38672523 -0.10539818 28.38672523 -0.10539818 29.55039978 -0.11329651 C31.3673257 -0.11349238 33.18413127 -0.06197277 35 0 C36.91387473 1.91387473 36.18703079 5.41990938 36.203125 8.02734375 C36.20882507 8.73145889 36.21452515 9.43557404 36.22039795 10.161026 C36.22985963 11.65315238 36.23638656 13.14529976 36.24023438 14.63745117 C36.24994559 16.9246855 36.28095825 19.21102349 36.3125 21.49804688 C36.31902925 22.94530714 36.32428003 24.39257386 36.328125 25.83984375 C36.3404718 26.52634506 36.3528186 27.21284637 36.36553955 27.92015076 C36.35644531 29.85131836 36.35644531 29.85131836 36 33 C32.73384949 35.17743367 31.80542739 35.24802522 28.02734375 35.23046875 C26.55297852 35.22756836 26.55297852 35.22756836 25.04882812 35.22460938 C24.02208984 35.21236328 22.99535156 35.20011719 21.9375 35.1875 C20.93783203 35.18685547 19.93816406 35.18621094 18.90820312 35.18554688 C1.08129596 35.08129596 1.08129596 35.08129596 -1 33 C-1.10017446 30.81695287 -1.13081258 28.63065588 -1.1328125 26.4453125 C-1.13376923 25.78796112 -1.13472595 25.13060974 -1.13571167 24.45333862 C-1.13639345 23.059549 -1.1345393 21.66575622 -1.13037109 20.27197266 C-1.12503972 18.14087747 -1.13030724 16.00999469 -1.13671875 13.87890625 C-1.13605763 12.5260412 -1.13477578 11.17317629 -1.1328125 9.8203125 C-1.13168457 8.58555176 -1.13055664 7.35079102 -1.12939453 6.07861328 C-1 3 -1 3 0 0 Z " fill="#D58C29" transform="translate(500,369)"/>
<path d="M0 0 C4.04139399 3.11764679 5.38246655 4.55789919 6.1875 9.6875 C6.43057851 13.97673077 6.41851457 18.26704558 6.4375 22.5625 C6.458125 23.72136719 6.47875 24.88023437 6.5 26.07421875 C6.52867304 32.34644608 6.48080091 37.2535535 3.1875 42.6875 C-0.27159023 45.75556264 -3.87649771 46.6875 -8.4375 46.6875 C-13.42303967 45.21030306 -16.73676577 43.47842106 -19.45727539 38.94921875 C-21.78535313 33.34606281 -21.2837552 27.67751427 -21.25 21.6875 C-21.26998047 20.429375 -21.28996094 19.17125 -21.31054688 17.875 C-21.30612775 9.53168548 -20.71997496 5.59497496 -14.8125 -0.3125 C-10.01142655 -2.15906671 -4.60646635 -2.1496843 0 0 Z " fill="#FFFFFF" transform="translate(526.8125,532.3125)"/>
</svg>
